mtllib material.mtl
usemtl material_0
v -0.32000000 0.05000000 -0.03500000
v -0.32000000 0.08000000 -0.03500000
v -0.34400000 0.05000000 -0.03500000
v -0.42000000 0.08000000 -0.03500000
v -0.34400000 -0.05000000 -0.03500000
v -0.42000000 -0.08000000 -0.03500000
v -0.32000000 -0.05000000 -0.03500000
v -0.32000000 -0.08000000 -0.03500000
v -0.42000000 0.08000000 -0.03500000
v -0.32000000 0.08000000 -0.03500000
v -0.42000000 0.08000000 -0.07500000
v -0.32000000 0.08000000 -0.07500000
v -0.42000000 -0.08000000 -0.03500000
v -0.42000000 0.08000000 -0.03500000
v -0.42000000 -0.08000000 -0.07500000
v -0.42000000 0.08000000 -0.07500000
v -0.32000000 -0.08000000 -0.03500000
v -0.42000000 -0.08000000 -0.03500000
v -0.32000000 -0.08000000 -0.07500000
v -0.42000000 -0.08000000 -0.07500000
v -0.32000000 -0.08000000 -0.07500000
v -0.32000000 0.08000000 -0.07500000
v -0.32000000 0.05000000 -0.03500000
v -0.32000000 0.08000000 -0.03500000
v -0.32000000 -0.08000000 -0.03500000
v -0.32000000 -0.05000000 -0.03500000
v -0.32000000 -0.05000000 0.03500000
v -0.32000000 0.05000000 0.03500000
v -0.32000000 -0.08000000 -0.07500000
v -0.42000000 -0.08000000 -0.07500000
v -0.32000000 0.08000000 -0.07500000
v -0.42000000 0.08000000 -0.07500000
v -0.32000000 -0.05000000 0.03500000
v -0.34400000 -0.05000000 0.03500000
v -0.32000000 -0.05000000 -0.03500000
v -0.34400000 -0.05000000 -0.03500000
v -0.34400000 0.05000000 0.03500000
v -0.32000000 0.05000000 0.03500000
v -0.34400000 0.05000000 -0.03500000
v -0.32000000 0.05000000 -0.03500000
v -0.34400000 -0.05000000 0.03500000
v -0.34400000 0.05000000 0.03500000
v -0.34400000 -0.05000000 -0.03500000
v -0.34400000 0.05000000 -0.03500000
v -0.32000000 0.05000000 0.03500000
v -0.34400000 0.05000000 0.03500000
v -0.32000000 -0.05000000 0.03500000
v -0.34400000 -0.05000000 0.03500000
vn 0.00000000 0.00000000 1.00000000
vn 0.00000000 0.00000000 1.00000000
vn 0.00000000 0.00000000 1.00000000
vn 0.00000000 0.00000000 1.00000000
vn 0.00000000 0.00000000 1.00000000
vn 0.00000000 0.00000000 1.00000000
vn 0.00000000 0.00000000 1.00000000
vn 0.00000000 0.00000000 1.00000000
vn 0.00000000 1.00000000 0.00000000
vn 0.00000000 1.00000000 0.00000000
vn 0.00000000 1.00000000 0.00000000
vn 0.00000000 1.00000000 0.00000000
vn -1.00000000 0.00000000 0.00000000
vn -1.00000000 0.00000000 0.00000000
vn -1.00000000 0.00000000 0.00000000
vn -1.00000000 0.00000000 0.00000000
vn 0.00000000 -1.00000000 0.00000000
vn 0.00000000 -1.00000000 0.00000000
vn 0.00000000 -1.00000000 0.00000000
vn 0.00000000 -1.00000000 0.00000000
vn 1.00000000 0.00000000 0.00000000
vn 1.00000000 0.00000000 0.00000000
vn 1.00000000 0.00000000 0.00000000
vn 1.00000000 0.00000000 0.00000000
vn 1.00000000 0.00000000 0.00000000
vn 1.00000000 0.00000000 0.00000000
vn 1.00000000 0.00000000 0.00000000
vn 1.00000000 0.00000000 0.00000000
vn 0.00000000 0.00000000 -1.00000000
vn 0.00000000 0.00000000 -1.00000000
vn 0.00000000 0.00000000 -1.00000000
vn 0.00000000 0.00000000 -1.00000000
vn 0.00000000 -1.00000000 0.00000000
vn 0.00000000 -1.00000000 0.00000000
vn 0.00000000 -1.00000000 0.00000000
vn 0.00000000 -1.00000000 0.00000000
vn 0.00000000 1.00000000 0.00000000
vn 0.00000000 1.00000000 0.00000000
vn 0.00000000 1.00000000 0.00000000
vn 0.00000000 1.00000000 0.00000000
vn -1.00000000 0.00000000 0.00000000
vn -1.00000000 0.00000000 0.00000000
vn -1.00000000 0.00000000 0.00000000
vn -1.00000000 0.00000000 0.00000000
vn 0.00000000 0.00000000 1.00000000
vn 0.00000000 0.00000000 1.00000000
vn 0.00000000 0.00000000 1.00000000
vn 0.00000000 0.00000000 1.00000000
f 1//1 2//2 3//3
f 3//3 2//2 4//4
f 3//3 4//4 5//5
f 5//5 4//4 6//6
f 5//5 6//6 7//7
f 7//7 6//6 8//8
f 9//9 10//10 11//11
f 11//11 10//10 12//12
f 13//13 14//14 15//15
f 15//15 14//14 16//16
f 17//17 18//18 19//19
f 19//19 18//18 20//20
f 21//21 22//22 23//23
f 23//23 22//22 24//24
f 25//25 21//21 26//26
f 26//26 21//21 23//23
f 26//26 23//23 27//27
f 27//27 23//23 28//28
f 29//29 30//30 31//31
f 31//31 30//30 32//32
f 33//33 34//34 35//35
f 35//35 34//34 36//36
f 37//37 38//38 39//39
f 39//39 38//38 40//40
f 41//41 42//42 43//43
f 43//43 42//42 44//44
f 45//45 46//46 47//47
f 47//47 46//46 48//48