mtllib material.mtl
usemtl material_0
v 0.22375000 0.04500000 0.03500000
v 0.22375000 0.04500000 -0.03500000
v 0.21575000 0.04500000 0.03500000
v 0.21575000 0.04500000 -0.03500000
v 0.21575000 0.03500000 0.04500000
v 0.21575000 -0.03500000 0.04500000
v 0.22375000 0.03500000 0.04500000
v 0.22375000 -0.03500000 0.04500000
v 0.22375000 -0.04500000 -0.03500000
v 0.22375000 -0.04500000 0.03500000
v 0.21575000 -0.04500000 -0.03500000
v 0.21575000 -0.04500000 0.03500000
v 0.22375000 0.03500000 -0.04500000
v 0.22375000 -0.03500000 -0.04500000
v 0.21575000 0.03500000 -0.04500000
v 0.21575000 -0.03500000 -0.04500000
v 0.22375000 0.04401000 0.03933900
v 0.22375000 0.04281800 0.04123500
v 0.22375000 0.03500000 0.04500000
v 0.22375000 0.04401000 -0.03933900
v 0.22375000 0.04474900 -0.03722500
v 0.22375000 0.03500000 -0.04500000
v 0.22375000 0.04500000 -0.03500000
v 0.22375000 0.04500000 0.03500000
v 0.22375000 -0.03500000 0.04500000
v 0.22375000 -0.04500000 0.03500000
v 0.22375000 0.03722500 -0.04474900
v 0.22375000 0.03933900 -0.04401000
v 0.22375000 0.04123500 -0.04281800
v 0.22375000 -0.04500000 -0.03500000
v 0.22375000 0.04474900 0.03722500
v 0.22375000 0.04123500 0.04281800
v 0.22375000 0.03933900 0.04401000
v 0.22375000 0.03722500 0.04474900
v 0.22375000 -0.04474900 -0.03722500
v 0.22375000 -0.03722500 -0.04474900
v 0.22375000 -0.03500000 -0.04500000
v 0.22375000 -0.03722500 0.04474900
v 0.22375000 -0.04401000 0.03933900
v 0.22375000 -0.04474900 0.03722500
v 0.22375000 -0.03933900 0.04401000
v 0.22375000 -0.04123500 0.04281800
v 0.22375000 -0.04281800 0.04123500
v 0.22375000 0.04281800 -0.04123500
v 0.22375000 -0.04401000 -0.03933900
v 0.22375000 -0.04281800 -0.04123500
v 0.22375000 -0.04123500 -0.04281800
v 0.22375000 -0.03933900 -0.04401000
v 0.21575000 0.04500000 0.03500000
v 0.21575000 0.04500000 -0.03500000
v 0.21575000 0.03500000 -0.04500000
v 0.21575000 -0.04474900 -0.03722500
v 0.21575000 -0.04500000 -0.03500000
v 0.21575000 -0.03500000 -0.04500000
v 0.21575000 -0.03500000 0.04500000
v 0.21575000 0.03500000 0.04500000
v 0.21575000 0.03722500 0.04474900
v 0.21575000 0.03933900 0.04401000
v 0.21575000 0.03933900 0.04401000
v 0.21575000 0.04474900 -0.03722500
v 0.21575000 0.04401000 -0.03933900
v 0.21575000 0.04281800 -0.04123500
v 0.21575000 0.04123500 -0.04281800
v 0.21575000 0.03933900 -0.04401000
v 0.21575000 0.03722500 -0.04474900
v 0.21575000 0.04123500 0.04281800
v 0.21575000 0.04281800 0.04123500
v 0.21575000 0.04281800 0.04123500
v 0.21575000 -0.04123500 -0.04281800
v 0.21575000 -0.04281800 -0.04123500
v 0.21575000 -0.03933900 -0.04401000
v 0.21575000 -0.03722500 -0.04474900
v 0.21575000 -0.04401000 -0.03933900
v 0.21575000 0.04401000 0.03933900
v 0.21575000 0.04474900 0.03722500
v 0.21575000 -0.04500000 0.03500000
v 0.21575000 -0.04474900 0.03722500
v 0.21575000 -0.04401000 0.03933900
v 0.21575000 -0.04281800 0.04123500
v 0.21575000 -0.04123500 0.04281800
v 0.21575000 -0.04123500 0.04281800
v 0.21575000 -0.03722500 0.04474900
v 0.21575000 -0.03722500 0.04474900
v 0.21575000 -0.03933900 0.04401000
v 0.22375000 0.04500000 0.03500000
v 0.21575000 0.04500000 0.03500000
v 0.21575000 0.04474900 0.03722500
v 0.22375000 0.04474900 0.03722500
v 0.22375000 0.04474900 0.03722500
v 0.21575000 0.04474900 0.03722500
v 0.21575000 0.04401000 0.03933900
v 0.22375000 0.04401000 0.03933900
v 0.22375000 0.04401000 0.03933900
v 0.21575000 0.04401000 0.03933900
v 0.21575000 0.04281800 0.04123500
v 0.22375000 0.04281800 0.04123500
v 0.22375000 0.04281800 0.04123500
v 0.21575000 0.04281800 0.04123500
v 0.21575000 0.04123500 0.04281800
v 0.22375000 0.04123500 0.04281800
v 0.22375000 0.04123500 0.04281800
v 0.21575000 0.04123500 0.04281800
v 0.21575000 0.03933900 0.04401000
v 0.22375000 0.03933900 0.04401000
v 0.22375000 0.03933900 0.04401000
v 0.21575000 0.03933900 0.04401000
v 0.21575000 0.03722500 0.04474900
v 0.22375000 0.03722500 0.04474900
v 0.22375000 0.03722500 0.04474900
v 0.21575000 0.03722500 0.04474900
v 0.21575000 0.03500000 0.04500000
v 0.22375000 0.03500000 0.04500000
v 0.22375000 0.03500000 -0.04500000
v 0.21575000 0.03500000 -0.04500000
v 0.21575000 0.03722500 -0.04474900
v 0.22375000 0.03722500 -0.04474900
v 0.22375000 0.03722500 -0.04474900
v 0.21575000 0.03722500 -0.04474900
v 0.21575000 0.03933900 -0.04401000
v 0.22375000 0.03933900 -0.04401000
v 0.22375000 0.03933900 -0.04401000
v 0.21575000 0.03933900 -0.04401000
v 0.21575000 0.04123500 -0.04281800
v 0.22375000 0.04123500 -0.04281800
v 0.22375000 0.04123500 -0.04281800
v 0.21575000 0.04123500 -0.04281800
v 0.21575000 0.04281800 -0.04123500
v 0.22375000 0.04281800 -0.04123500
v 0.22375000 0.04281800 -0.04123500
v 0.21575000 0.04281800 -0.04123500
v 0.21575000 0.04401000 -0.03933900
v 0.22375000 0.04401000 -0.03933900
v 0.22375000 0.04401000 -0.03933900
v 0.21575000 0.04401000 -0.03933900
v 0.21575000 0.04474900 -0.03722500
v 0.22375000 0.04474900 -0.03722500
v 0.22375000 0.04474900 -0.03722500
v 0.21575000 0.04474900 -0.03722500
v 0.21575000 0.04500000 -0.03500000
v 0.22375000 0.04500000 -0.03500000
v 0.22375000 -0.04500000 -0.03500000
v 0.21575000 -0.04500000 -0.03500000
v 0.21575000 -0.04474900 -0.03722500
v 0.22375000 -0.04474900 -0.03722500
v 0.22375000 -0.04474900 -0.03722500
v 0.21575000 -0.04474900 -0.03722500
v 0.21575000 -0.04401000 -0.03933900
v 0.22375000 -0.04401000 -0.03933900
v 0.22375000 -0.04401000 -0.03933900
v 0.21575000 -0.04401000 -0.03933900
v 0.21575000 -0.04281800 -0.04123500
v 0.22375000 -0.04281800 -0.04123500
v 0.22375000 -0.04281800 -0.04123500
v 0.21575000 -0.04281800 -0.04123500
v 0.21575000 -0.04123500 -0.04281800
v 0.22375000 -0.04123500 -0.04281800
v 0.22375000 -0.04123500 -0.04281800
v 0.21575000 -0.04123500 -0.04281800
v 0.21575000 -0.03933900 -0.04401000
v 0.22375000 -0.03933900 -0.04401000
v 0.22375000 -0.03933900 -0.04401000
v 0.21575000 -0.03933900 -0.04401000
v 0.21575000 -0.03722500 -0.04474900
v 0.22375000 -0.03722500 -0.04474900
v 0.22375000 -0.03722500 -0.04474900
v 0.21575000 -0.03722500 -0.04474900
v 0.21575000 -0.03500000 -0.04500000
v 0.22375000 -0.03500000 -0.04500000
v 0.22375000 -0.03500000 0.04500000
v 0.21575000 -0.03500000 0.04500000
v 0.21575000 -0.03722500 0.04474900
v 0.22375000 -0.03722500 0.04474900
v 0.22375000 -0.03722500 0.04474900
v 0.21575000 -0.03722500 0.04474900
v 0.21575000 -0.03933900 0.04401000
v 0.22375000 -0.03933900 0.04401000
v 0.22375000 -0.03933900 0.04401000
v 0.21575000 -0.03933900 0.04401000
v 0.21575000 -0.04123500 0.04281800
v 0.22375000 -0.04123500 0.04281800
v 0.22375000 -0.04123500 0.04281800
v 0.21575000 -0.04123500 0.04281800
v 0.21575000 -0.04281800 0.04123500
v 0.22375000 -0.04281800 0.04123500
v 0.22375000 -0.04281800 0.04123500
v 0.21575000 -0.04281800 0.04123500
v 0.21575000 -0.04401000 0.03933900
v 0.22375000 -0.04401000 0.03933900
v 0.22375000 -0.04401000 0.03933900
v 0.21575000 -0.04401000 0.03933900
v 0.21575000 -0.04474900 0.03722500
v 0.22375000 -0.04474900 0.03722500
v 0.22375000 -0.04474900 0.03722500
v 0.21575000 -0.04474900 0.03722500
v 0.21575000 -0.04500000 0.03500000
v 0.22375000 -0.04500000 0.03500000
vn 0.00000000 1.00000000 0.00000000
vn 0.00000000 1.00000000 0.00000000
vn 0.00000000 1.00000000 0.00000000
vn 0.00000000 1.00000000 0.00000000
vn 0.00000000 0.00000000 1.00000000
vn 0.00000000 0.00000000 1.00000000
vn 0.00000000 0.00000000 1.00000000
vn 0.00000000 0.00000000 1.00000000
vn 0.00000000 -1.00000000 0.00000000
vn 0.00000000 -1.00000000 0.00000000
vn 0.00000000 -1.00000000 0.00000000
vn 0.00000000 -1.00000000 0.00000000
vn 0.00000000 0.00000000 -1.00000000
vn 0.00000000 0.00000000 -1.00000000
vn 0.00000000 0.00000000 -1.00000000
vn 0.00000000 0.00000000 -1.00000000
vn 1.00000000 0.00000000 0.00000000
vn 1.00000000 0.00000000 0.00000000
vn 1.00000000 0.00000000 0.00000000
vn 1.00000000 0.00000000 0.00000000
vn 1.00000000 0.00000000 0.00000000
vn 1.00000000 0.00000000 0.00000000
vn 1.00000000 0.00000000 0.00000000
vn 1.00000000 0.00000000 0.00000000
vn 1.00000000 0.00000000 0.00000000
vn 1.00000000 0.00000000 0.00000000
vn 1.00000000 0.00000000 0.00000000
vn 1.00000000 0.00000000 0.00000000
vn 1.00000000 0.00000000 0.00000000
vn 1.00000000 0.00000000 0.00000000
vn 1.00000000 0.00000000 0.00000000
vn 1.00000000 0.00000000 0.00000000
vn 1.00000000 0.00000000 0.00000000
vn 1.00000000 0.00000000 0.00000000
vn 1.00000000 0.00000000 0.00000000
vn 1.00000000 0.00000000 0.00000000
vn 1.00000000 0.00000000 0.00000000
vn 1.00000000 0.00000000 0.00000000
vn 1.00000000 0.00000000 0.00000000
vn 1.00000000 0.00000000 0.00000000
vn 1.00000000 0.00000000 0.00000000
vn 1.00000000 0.00000000 0.00000000
vn 1.00000000 0.00000000 0.00000000
vn 1.00000000 0.00000000 0.00000000
vn 1.00000000 0.00000000 0.00000000
vn 1.00000000 0.00000000 0.00000000
vn 1.00000000 0.00000000 0.00000000
vn 1.00000000 0.00000000 0.00000000
vn -1.00000000 0.00000000 0.00000000
vn -1.00000000 0.00000000 0.00000000
vn -1.00000000 0.00000000 0.00000000
vn -1.00000000 0.00000000 0.00000000
vn -1.00000000 0.00000000 0.00000000
vn -1.00000000 0.00000000 0.00000000
vn -1.00000000 0.00000000 0.00000000
vn -1.00000000 0.00000000 0.00000000
vn -1.00000000 0.00000000 0.00000000
vn -1.00000000 -0.00010000 0.00000000
vn -1.00000000 0.00000000 0.00000000
vn -1.00000000 0.00000000 0.00000000
vn -1.00000000 0.00000000 0.00000000
vn -1.00000000 0.00000000 0.00000000
vn -1.00000000 0.00000000 0.00000000
vn -1.00000000 0.00000000 0.00000000
vn -1.00000000 0.00000000 0.00000000
vn -1.00000000 -0.00010000 0.00000000
vn -1.00000000 0.00000000 0.00000000
vn -1.00000000 -0.00010000 0.00000000
vn -1.00000000 0.00000000 0.00000000
vn -1.00000000 0.00000000 0.00000000
vn -1.00000000 0.00000000 0.00000000
vn -1.00000000 0.00000000 0.00000000
vn -1.00000000 0.00000000 0.00000000
vn -1.00000000 0.00000000 0.00000000
vn -1.00000000 0.00000000 0.00000000
vn -1.00000000 0.00000000 0.00000000
vn -1.00000000 0.00000000 0.00000000
vn -1.00000000 0.00000000 0.00000000
vn -1.00000000 0.00000000 0.00000000
vn -1.00000000 0.00000000 0.00000000
vn -1.00000000 0.00010000 0.00000000
vn -1.00000000 0.00000000 0.00000000
vn -1.00000000 0.00010000 0.00000000
vn -1.00000000 0.00010000 0.00000000
vn 0.00000000 0.99370000 0.11210000
vn 0.00000000 0.99370000 0.11210000
vn 0.00000000 0.99370000 0.11210000
vn 0.00000000 0.99370000 0.11210000
vn 0.00000000 0.94400000 0.33000000
vn 0.00000000 0.94400000 0.33000000
vn 0.00000000 0.94400000 0.33000000
vn 0.00000000 0.94400000 0.33000000
vn 0.00000000 0.84660000 0.53220000
vn 0.00000000 0.84660000 0.53220000
vn 0.00000000 0.84660000 0.53220000
vn 0.00000000 0.84660000 0.53220000
vn 0.00000000 0.70710000 0.70710000
vn 0.00000000 0.70710000 0.70710000
vn 0.00000000 0.70710000 0.70710000
vn 0.00000000 0.70710000 0.70710000
vn 0.00000000 0.53220000 0.84660000
vn 0.00000000 0.53220000 0.84660000
vn 0.00000000 0.53220000 0.84660000
vn 0.00000000 0.53220000 0.84660000
vn 0.00000000 0.33000000 0.94400000
vn 0.00000000 0.33000000 0.94400000
vn 0.00000000 0.33000000 0.94400000
vn 0.00000000 0.33000000 0.94400000
vn 0.00000000 0.11210000 0.99370000
vn 0.00000000 0.11210000 0.99370000
vn 0.00000000 0.11210000 0.99370000
vn 0.00000000 0.11210000 0.99370000
vn 0.00000000 0.11210000 -0.99370000
vn 0.00000000 0.11210000 -0.99370000
vn 0.00000000 0.11210000 -0.99370000
vn 0.00000000 0.11210000 -0.99370000
vn 0.00000000 0.33000000 -0.94400000
vn 0.00000000 0.33000000 -0.94400000
vn 0.00000000 0.33000000 -0.94400000
vn 0.00000000 0.33000000 -0.94400000
vn 0.00000000 0.53220000 -0.84660000
vn 0.00000000 0.53220000 -0.84660000
vn 0.00000000 0.53220000 -0.84660000
vn 0.00000000 0.53220000 -0.84660000
vn 0.00000000 0.70710000 -0.70710000
vn 0.00000000 0.70710000 -0.70710000
vn 0.00000000 0.70710000 -0.70710000
vn 0.00000000 0.70710000 -0.70710000
vn 0.00000000 0.84660000 -0.53220000
vn 0.00000000 0.84660000 -0.53220000
vn 0.00000000 0.84660000 -0.53220000
vn 0.00000000 0.84660000 -0.53220000
vn 0.00000000 0.94400000 -0.33000000
vn 0.00000000 0.94400000 -0.33000000
vn 0.00000000 0.94400000 -0.33000000
vn 0.00000000 0.94400000 -0.33000000
vn 0.00000000 0.99370000 -0.11210000
vn 0.00000000 0.99370000 -0.11210000
vn 0.00000000 0.99370000 -0.11210000
vn 0.00000000 0.99370000 -0.11210000
vn 0.00000000 -0.99370000 -0.11210000
vn 0.00000000 -0.99370000 -0.11210000
vn 0.00000000 -0.99370000 -0.11210000
vn 0.00000000 -0.99370000 -0.11210000
vn 0.00000000 -0.94400000 -0.33000000
vn 0.00000000 -0.94400000 -0.33000000
vn 0.00000000 -0.94400000 -0.33000000
vn 0.00000000 -0.94400000 -0.33000000
vn 0.00000000 -0.84660000 -0.53220000
vn 0.00000000 -0.84660000 -0.53220000
vn 0.00000000 -0.84660000 -0.53220000
vn 0.00000000 -0.84660000 -0.53220000
vn 0.00000000 -0.70710000 -0.70710000
vn 0.00000000 -0.70710000 -0.70710000
vn 0.00000000 -0.70710000 -0.70710000
vn 0.00000000 -0.70710000 -0.70710000
vn 0.00000000 -0.53220000 -0.84660000
vn 0.00000000 -0.53220000 -0.84660000
vn 0.00000000 -0.53220000 -0.84660000
vn 0.00000000 -0.53220000 -0.84660000
vn 0.00000000 -0.33000000 -0.94400000
vn 0.00000000 -0.33000000 -0.94400000
vn 0.00000000 -0.33000000 -0.94400000
vn 0.00000000 -0.33000000 -0.94400000
vn 0.00000000 -0.11210000 -0.99370000
vn 0.00000000 -0.11210000 -0.99370000
vn 0.00000000 -0.11210000 -0.99370000
vn 0.00000000 -0.11210000 -0.99370000
vn 0.00000000 -0.11210000 0.99370000
vn 0.00000000 -0.11210000 0.99370000
vn 0.00000000 -0.11210000 0.99370000
vn 0.00000000 -0.11210000 0.99370000
vn 0.00000000 -0.33000000 0.94400000
vn 0.00000000 -0.33000000 0.94400000
vn 0.00000000 -0.33000000 0.94400000
vn 0.00000000 -0.33000000 0.94400000
vn 0.00000000 -0.53220000 0.84660000
vn 0.00000000 -0.53220000 0.84660000
vn 0.00000000 -0.53220000 0.84660000
vn 0.00000000 -0.53220000 0.84660000
vn 0.00000000 -0.70710000 0.70710000
vn 0.00000000 -0.70710000 0.70710000
vn 0.00000000 -0.70710000 0.70710000
vn 0.00000000 -0.70710000 0.70710000
vn 0.00000000 -0.84660000 0.53220000
vn 0.00000000 -0.84660000 0.53220000
vn 0.00000000 -0.84660000 0.53220000
vn 0.00000000 -0.84660000 0.53220000
vn 0.00000000 -0.94400000 0.33000000
vn 0.00000000 -0.94400000 0.33000000
vn 0.00000000 -0.94400000 0.33000000
vn 0.00000000 -0.94400000 0.33000000
vn 0.00000000 -0.99370000 0.11210000
vn 0.00000000 -0.99370000 0.11210000
vn 0.00000000 -0.99370000 0.11210000
vn 0.00000000 -0.99370000 0.11210000
f 1//1 2//2 3//3
f 3//3 2//2 4//4
f 5//5 6//6 7//7
f 7//7 6//6 8//8
f 9//9 10//10 11//11
f 11//11 10//10 12//12
f 13//13 14//14 15//15
f 15//15 14//14 16//16
f 17//17 18//18 19//19
f 20//20 21//21 22//22
f 22//22 21//21 23//23
f 22//22 23//23 24//24
f 19//19 25//25 26//26
f 27//27 28//28 29//29
f 30//30 22//22 26//26
f 26//26 22//22 24//24
f 26//26 24//24 19//19
f 19//19 24//24 31//31
f 19//19 31//31 17//17
f 18//18 32//32 19//19
f 19//19 32//32 33//33
f 19//19 33//33 34//34
f 35//35 36//36 30//30
f 30//30 36//36 37//37
f 30//30 37//37 22//22
f 38//38 39//39 25//25
f 25//25 39//39 40//40
f 25//25 40//40 26//26
f 38//38 41//41 39//39
f 39//39 41//41 42//42
f 39//39 42//42 43//43
f 27//27 29//29 22//22
f 22//22 29//29 44//44
f 22//22 44//44 20//20
f 35//35 45//45 46//46
f 46//46 47//47 35//35
f 35//35 47//47 48//48
f 35//35 48//48 36//36
f 49//49 50//50 51//51
f 52//52 53//53 54//54
f 54//54 53//53 51//51
f 53//53 55//55 51//51
f 51//51 55//55 56//56
f 51//51 56//56 49//49
f 49//49 56//56 57//57
f 49//49 57//57 59//59
f 60//60 61//61 50//50
f 50//50 61//61 62//62
f 50//50 62//62 63//63
f 63//63 64//64 50//50
f 50//50 64//64 65//65
f 50//50 65//65 51//51
f 58//58 66//66 68//68
f 69//69 70//70 71//71
f 71//71 70//70 72//72
f 72//72 70//70 54//54
f 54//54 70//70 73//73
f 54//54 73//73 52//52
f 67//67 74//74 59//59
f 59//59 74//74 75//75
f 59//59 75//75 49//49
f 53//53 76//76 55//55
f 55//55 76//76 77//77
f 55//55 77//77 78//78
f 78//78 79//79 55//55
f 55//55 79//79 80//80
f 55//55 80//80 82//82
f 83//83 81//81 84//84
f 85//85 86//86 87//87
f 85//85 87//87 88//88
f 89//89 90//90 91//91
f 89//89 91//91 92//92
f 93//93 94//94 95//95
f 93//93 95//95 96//96
f 97//97 98//98 99//99
f 97//97 99//99 100//100
f 101//101 102//102 103//103
f 101//101 103//103 104//104
f 105//105 106//106 107//107
f 105//105 107//107 108//108
f 109//109 110//110 111//111
f 109//109 111//111 112//112
f 113//113 114//114 115//115
f 113//113 115//115 116//116
f 117//117 118//118 119//119
f 117//117 119//119 120//120
f 121//121 122//122 123//123
f 121//121 123//123 124//124
f 125//125 126//126 127//127
f 125//125 127//127 128//128
f 129//129 130//130 131//131
f 129//129 131//131 132//132
f 133//133 134//134 135//135
f 133//133 135//135 136//136
f 137//137 138//138 139//139
f 137//137 139//139 140//140
f 141//141 142//142 143//143
f 141//141 143//143 144//144
f 145//145 146//146 147//147
f 145//145 147//147 148//148
f 149//149 150//150 151//151
f 149//149 151//151 152//152
f 153//153 154//154 155//155
f 153//153 155//155 156//156
f 157//157 158//158 159//159
f 157//157 159//159 160//160
f 161//161 162//162 163//163
f 161//161 163//163 164//164
f 165//165 166//166 167//167
f 165//165 167//167 168//168
f 169//169 170//170 171//171
f 169//169 171//171 172//172
f 173//173 174//174 175//175
f 173//173 175//175 176//176
f 177//177 178//178 179//179
f 177//177 179//179 180//180
f 181//181 182//182 183//183
f 181//181 183//183 184//184
f 185//185 186//186 187//187
f 185//185 187//187 188//188
f 189//189 190//190 191//191
f 189//189 191//191 192//192
f 193//193 194//194 195//195
f 193//193 195//195 196//196