mtllib material.mtl
usemtl material_0
v 0.24875000 0.02000000 -0.01000000
v 0.22375000 0.02000000 -0.01000000
v 0.24875000 0.02000000 0.01000000
v 0.22375000 0.02000000 0.01000000
v 0.24875000 0.01000000 0.02000000
v 0.22375000 0.01000000 0.02000000
v 0.24875000 -0.01000000 0.02000000
v 0.22375000 -0.01000000 0.02000000
v 0.24875000 -0.02000000 0.01000000
v 0.22375000 -0.02000000 0.01000000
v 0.24875000 -0.02000000 -0.01000000
v 0.22375000 -0.02000000 -0.01000000
v 0.24875000 -0.01000000 -0.02000000
v 0.22375000 -0.01000000 -0.02000000
v 0.24875000 0.01000000 -0.02000000
v 0.22375000 0.01000000 -0.02000000
v 0.25375000 -0.00792900 0.01500000
v 0.25375000 -0.01500000 0.00792900
v 0.25375000 -0.01500000 -0.00792900
v 0.25375000 0.00792900 -0.01500000
v 0.25375000 0.01500000 -0.00792900
v 0.25375000 0.01500000 0.00792900
v 0.25375000 -0.00792900 -0.01500000
v 0.25375000 0.00792900 0.01500000
v 0.22375000 -0.01000000 0.02000000
v 0.22375000 0.01000000 0.02000000
v 0.22375000 0.02000000 0.01000000
v 0.22375000 -0.02000000 -0.01000000
v 0.22375000 -0.02000000 0.01000000
v 0.22375000 0.02000000 -0.01000000
v 0.22375000 0.01000000 -0.02000000
v 0.22375000 -0.01000000 -0.02000000
v 0.24875000 0.02000000 0.01000000
v 0.22375000 0.02000000 0.01000000
v 0.24875000 0.01000000 0.02000000
v 0.22375000 0.01000000 0.02000000
v 0.24875000 0.01000000 -0.02000000
v 0.22375000 0.01000000 -0.02000000
v 0.24875000 0.02000000 -0.01000000
v 0.22375000 0.02000000 -0.01000000
v 0.24875000 -0.02000000 -0.01000000
v 0.22375000 -0.02000000 -0.01000000
v 0.24875000 -0.01000000 -0.02000000
v 0.22375000 -0.01000000 -0.02000000
v 0.24875000 -0.01000000 0.02000000
v 0.22375000 -0.01000000 0.02000000
v 0.24875000 -0.02000000 0.01000000
v 0.22375000 -0.02000000 0.01000000
v 0.24875000 0.01000000 -0.02000000
v 0.25375000 0.00792900 -0.01500000
v 0.24875000 -0.01000000 -0.02000000
v 0.25375000 -0.00792900 -0.01500000
v 0.24875000 0.02000000 -0.01000000
v 0.25375000 0.01500000 -0.00792900
v 0.24875000 0.01000000 -0.02000000
v 0.25375000 0.00792900 -0.01500000
v 0.25375000 -0.01500000 -0.00792900
v 0.24875000 -0.02000000 -0.01000000
v 0.25375000 -0.00792900 -0.01500000
v 0.24875000 -0.01000000 -0.02000000
v 0.24875000 0.02000000 0.01000000
v 0.25375000 0.01500000 0.00792900
v 0.24875000 0.02000000 -0.01000000
v 0.25375000 0.01500000 -0.00792900
v 0.25375000 -0.01500000 0.00792900
v 0.24875000 -0.02000000 0.01000000
v 0.25375000 -0.01500000 -0.00792900
v 0.24875000 -0.02000000 -0.01000000
v 0.24875000 0.01000000 0.02000000
v 0.25375000 0.00792900 0.01500000
v 0.24875000 0.02000000 0.01000000
v 0.25375000 0.01500000 0.00792900
v 0.25375000 -0.00792900 0.01500000
v 0.24875000 -0.01000000 0.02000000
v 0.25375000 -0.01500000 0.00792900
v 0.24875000 -0.02000000 0.01000000
v 0.24875000 -0.01000000 0.02000000
v 0.25375000 -0.00792900 0.01500000
v 0.24875000 0.01000000 0.02000000
v 0.25375000 0.00792900 0.01500000
vn 0.00000000 1.00000000 0.00000000
vn 0.00000000 1.00000000 0.00000000
vn 0.00000000 1.00000000 0.00000000
vn 0.00000000 1.00000000 0.00000000
vn 0.00000000 0.00000000 1.00000000
vn 0.00000000 0.00000000 1.00000000
vn 0.00000000 0.00000000 1.00000000
vn 0.00000000 0.00000000 1.00000000
vn 0.00000000 -1.00000000 0.00000000
vn 0.00000000 -1.00000000 0.00000000
vn 0.00000000 -1.00000000 0.00000000
vn 0.00000000 -1.00000000 0.00000000
vn 0.00000000 0.00000000 -1.00000000
vn 0.00000000 0.00000000 -1.00000000
vn 0.00000000 0.00000000 -1.00000000
vn 0.00000000 0.00000000 -1.00000000
vn 1.00000000 -0.00000000 0.00000000
vn 1.00000000 -0.00000000 0.00000000
vn 1.00000000 -0.00000000 0.00000000
vn 1.00000000 -0.00000000 0.00000000
vn 1.00000000 -0.00000000 0.00000000
vn 1.00000000 -0.00000000 0.00000000
vn 1.00000000 -0.00000000 0.00000000
vn 1.00000000 -0.00000000 0.00000000
vn -1.00000000 0.00000000 0.00000000
vn -1.00000000 0.00000000 0.00000000
vn -1.00000000 0.00000000 0.00000000
vn -1.00000000 0.00000000 0.00000000
vn -1.00000000 0.00000000 0.00000000
vn -1.00000000 0.00000000 0.00000000
vn -1.00000000 0.00000000 0.00000000
vn -1.00000000 0.00000000 0.00000000
vn 0.00000000 0.70710000 0.70710000
vn 0.00000000 0.70710000 0.70710000
vn 0.00000000 0.70710000 0.70710000
vn 0.00000000 0.70710000 0.70710000
vn 0.00000000 0.70710000 -0.70710000
vn 0.00000000 0.70710000 -0.70710000
vn 0.00000000 0.70710000 -0.70710000
vn 0.00000000 0.70710000 -0.70710000
vn 0.00000000 -0.70710000 -0.70710000
vn 0.00000000 -0.70710000 -0.70710000
vn 0.00000000 -0.70710000 -0.70710000
vn 0.00000000 -0.70710000 -0.70710000
vn 0.00000000 -0.70710000 0.70710000
vn 0.00000000 -0.70710000 0.70710000
vn 0.00000000 -0.70710000 0.70710000
vn 0.00000000 -0.70710000 0.70710000
vn 0.70710000 0.00000000 -0.70710000
vn 0.70710000 0.00000000 -0.70710000
vn 0.70710000 0.00000000 -0.70710000
vn 0.70710000 0.00000000 -0.70710000
vn 0.70710000 0.50000000 -0.50000000
vn 0.70710000 0.50000000 -0.50000000
vn 0.70710000 0.50000000 -0.50000000
vn 0.70710000 0.50000000 -0.50000000
vn 0.70710000 -0.50000000 -0.50000000
vn 0.70710000 -0.50000000 -0.50000000
vn 0.70710000 -0.50000000 -0.50000000
vn 0.70710000 -0.50000000 -0.50000000
vn 0.70710000 0.70710000 0.00000000
vn 0.70710000 0.70710000 0.00000000
vn 0.70710000 0.70710000 0.00000000
vn 0.70710000 0.70710000 0.00000000
vn 0.70710000 -0.70710000 0.00000000
vn 0.70710000 -0.70710000 0.00000000
vn 0.70710000 -0.70710000 0.00000000
vn 0.70710000 -0.70710000 0.00000000
vn 0.70710000 0.50000000 0.50000000
vn 0.70710000 0.50000000 0.50000000
vn 0.70710000 0.50000000 0.50000000
vn 0.70710000 0.50000000 0.50000000
vn 0.70710000 -0.50000000 0.50000000
vn 0.70710000 -0.50000000 0.50000000
vn 0.70710000 -0.50000000 0.50000000
vn 0.70710000 -0.50000000 0.50000000
vn 0.70710000 0.00000000 0.70710000
vn 0.70710000 0.00000000 0.70710000
vn 0.70710000 0.00000000 0.70710000
vn 0.70710000 0.00000000 0.70710000
f 1//1 2//2 3//3
f 3//3 2//2 4//4
f 5//5 6//6 7//7
f 7//7 6//6 8//8
f 9//9 10//10 11//11
f 11//11 10//10 12//12
f 13//13 14//14 15//15
f 15//15 14//14 16//16
f 17//17 18//18 19//19
f 20//20 21//21 22//22
f 20//20 22//22 23//23
f 23//23 22//22 19//19
f 19//19 22//22 24//24
f 19//19 24//24 17//17
f 25//25 26//26 27//27
f 28//28 29//29 25//25
f 27//27 30//30 31//31
f 25//25 27//27 28//28
f 28//28 27//27 31//31
f 28//28 31//31 32//32
f 33//33 34//34 35//35
f 35//35 34//34 36//36
f 37//37 38//38 39//39
f 39//39 38//38 40//40
f 41//41 42//42 43//43
f 43//43 42//42 44//44
f 45//45 46//46 47//47
f 47//47 46//46 48//48
f 49//49 50//50 51//51
f 51//51 50//50 52//52
f 53//53 54//54 55//55
f 55//55 54//54 56//56
f 57//57 58//58 59//59
f 59//59 58//58 60//60
f 61//61 62//62 63//63
f 63//63 62//62 64//64
f 65//65 66//66 67//67
f 67//67 66//66 68//68
f 69//69 70//70 71//71
f 71//71 70//70 72//72
f 73//73 74//74 75//75
f 75//75 74//74 76//76
f 77//77 78//78 79//79
f 79//79 78//78 80//80