mtllib material.mtl
usemtl material_0
v 0.27200000 0.00452700 -0.03600000
v 0.27200000 -0.00452700 -0.03600000
v 0.27200000 0.00452700 -0.04600000
v 0.27200000 -0.00452700 -0.04600000
v 0.26000000 -0.01232600 -0.03600000
v 0.26000000 0.01232600 -0.03600000
v 0.26000000 -0.01232600 -0.04600000
v 0.26000000 0.01232600 -0.04600000
v 0.26535200 -0.01767800 -0.03600000
v 0.26000000 -0.01232600 -0.03600000
v 0.26535200 -0.01767800 -0.04600000
v 0.26000000 -0.01232600 -0.04600000
v 0.26676600 -0.01626300 -0.03600000
v 0.26535200 -0.01767800 -0.03600000
v 0.26535200 -0.01767800 -0.03600000
v 0.26676600 -0.01626300 -0.04600000
v 0.26676600 -0.01626300 -0.04600000
v 0.26535200 -0.01767800 -0.04600000
v 0.26464500 -0.01414200 -0.03600000
v 0.26676600 -0.01626300 -0.03600000
v 0.26464500 -0.01414200 -0.04600000
v 0.26676600 -0.01626300 -0.04600000
v 0.27171600 -0.00707100 -0.03600000
v 0.26464500 -0.01414200 -0.03600000
v 0.27171600 -0.00707100 -0.04600000
v 0.26464500 -0.01414200 -0.04600000
v 0.27383700 -0.00919200 -0.03600000
v 0.27171600 -0.00707100 -0.03600000
v 0.27383700 -0.00919200 -0.04600000
v 0.27171600 -0.00707100 -0.04600000
v 0.27525100 -0.00777800 -0.03600000
v 0.27383700 -0.00919200 -0.03600000
v 0.27525100 -0.00777800 -0.04600000
v 0.27383700 -0.00919200 -0.04600000
v 0.27200000 -0.00452700 -0.03600000
v 0.27525100 -0.00777800 -0.03600000
v 0.27200000 -0.00452700 -0.04600000
v 0.27525100 -0.00777800 -0.04600000
v 0.26676600 0.01626300 -0.03600000
v 0.26535200 0.01767800 -0.03600000
v 0.26464500 0.01414200 -0.03600000
v 0.26000000 0.01232600 -0.03600000
v 0.27525100 0.00777800 -0.03600000
v 0.27383700 0.00919200 -0.03600000
v 0.27200000 0.00452700 -0.03600000
v 0.27171600 0.00707100 -0.03600000
v 0.27200000 -0.00452700 -0.03600000
v 0.27171600 -0.00707100 -0.03600000
v 0.27525100 -0.00777800 -0.03600000
v 0.27383700 -0.00919200 -0.03600000
v 0.26464500 -0.01414200 -0.03600000
v 0.26000000 -0.01232600 -0.03600000
v 0.26676600 -0.01626300 -0.03600000
v 0.26535200 -0.01767800 -0.03600000
v 0.26676600 -0.01626300 -0.04600000
v 0.26535200 -0.01767800 -0.04600000
v 0.26464500 -0.01414200 -0.04600000
v 0.26000000 -0.01232600 -0.04600000
v 0.27525100 -0.00777800 -0.04600000
v 0.27383700 -0.00919200 -0.04600000
v 0.27200000 -0.00452700 -0.04600000
v 0.27171600 -0.00707100 -0.04600000
v 0.27200000 0.00452700 -0.04600000
v 0.27171600 0.00707100 -0.04600000
v 0.27525100 0.00777800 -0.04600000
v 0.27383700 0.00919200 -0.04600000
v 0.26464500 0.01414200 -0.04600000
v 0.26000000 0.01232600 -0.04600000
v 0.26676600 0.01626300 -0.04600000
v 0.26535200 0.01767800 -0.04600000
v 0.27525100 0.00777800 -0.03600000
v 0.27200000 0.00452700 -0.03600000
v 0.27525100 0.00777800 -0.04600000
v 0.27200000 0.00452700 -0.04600000
v 0.27383700 0.00919200 -0.03600000
v 0.27525100 0.00777800 -0.03600000
v 0.27383700 0.00919200 -0.04600000
v 0.27525100 0.00777800 -0.04600000
v 0.27171600 0.00707100 -0.03600000
v 0.27383700 0.00919200 -0.03600000
v 0.27171600 0.00707100 -0.04600000
v 0.27383700 0.00919200 -0.04600000
v 0.26464500 0.01414200 -0.03600000
v 0.27171600 0.00707100 -0.03600000
v 0.26464500 0.01414200 -0.04600000
v 0.27171600 0.00707100 -0.04600000
v 0.26676600 0.01626300 -0.03600000
v 0.26464500 0.01414200 -0.03600000
v 0.26676600 0.01626300 -0.04600000
v 0.26464500 0.01414200 -0.04600000
v 0.26535200 0.01767800 -0.03600000
v 0.26676600 0.01626300 -0.03600000
v 0.26676600 0.01626300 -0.03600000
v 0.26535200 0.01767800 -0.04600000
v 0.26535200 0.01767800 -0.04600000
v 0.26676600 0.01626300 -0.04600000
v 0.26000000 0.01232600 -0.03600000
v 0.26535200 0.01767800 -0.03600000
v 0.26000000 0.01232600 -0.04600000
v 0.26535200 0.01767800 -0.04600000
vn 1.00000000 0.00000000 0.00000000
vn 1.00000000 0.00000000 0.00000000
vn 1.00000000 0.00000000 0.00000000
vn 1.00000000 0.00000000 0.00000000
vn -1.00000000 0.00000000 0.00000000
vn -1.00000000 0.00000000 0.00000000
vn -1.00000000 0.00000000 0.00000000
vn -1.00000000 0.00000000 0.00000000
vn -0.70710000 -0.70710000 0.00000000
vn -0.70710000 -0.70710000 0.00000000
vn -0.70710000 -0.70710000 0.00000000
vn -0.70710000 -0.70710000 0.00000000
vn 0.70730000 -0.70690000 0.00000000
vn 0.70740000 -0.70690000 0.00000000
vn 0.70730000 -0.70690000 0.00000000
vn 0.70730000 -0.70690000 0.00000000
vn 0.70740000 -0.70690000 0.00000000
vn 0.70740000 -0.70690000 0.00000000
vn 0.70710000 0.70710000 0.00000000
vn 0.70710000 0.70710000 0.00000000
vn 0.70710000 0.70710000 0.00000000
vn 0.70710000 0.70710000 0.00000000
vn 0.70710000 -0.70710000 0.00000000
vn 0.70710000 -0.70710000 0.00000000
vn 0.70710000 -0.70710000 0.00000000
vn 0.70710000 -0.70710000 0.00000000
vn -0.70710000 -0.70710000 0.00000000
vn -0.70710000 -0.70710000 0.00000000
vn -0.70710000 -0.70710000 0.00000000
vn -0.70710000 -0.70710000 0.00000000
vn 0.70710000 -0.70710000 0.00000000
vn 0.70710000 -0.70710000 0.00000000
vn 0.70710000 -0.70710000 0.00000000
vn 0.70710000 -0.70710000 0.00000000
vn 0.70710000 0.70710000 0.00000000
vn 0.70710000 0.70710000 0.00000000
vn 0.70710000 0.70710000 0.00000000
vn 0.70710000 0.70710000 0.00000000
vn 0.00000000 0.00000000 1.00000000
vn 0.00000000 0.00000000 1.00000000
vn 0.00000000 0.00000000 1.00000000
vn 0.00000000 0.00000000 1.00000000
vn 0.00000000 0.00000000 1.00000000
vn 0.00000000 0.00000000 1.00000000
vn 0.00000000 0.00000000 1.00000000
vn 0.00000000 0.00000000 1.00000000
vn 0.00000000 0.00000000 1.00000000
vn 0.00000000 0.00000000 1.00000000
vn 0.00000000 0.00000000 1.00000000
vn 0.00000000 0.00000000 1.00000000
vn 0.00000000 0.00000000 1.00000000
vn 0.00000000 0.00000000 1.00000000
vn 0.00000000 0.00000000 1.00000000
vn 0.00000000 0.00000000 1.00000000
vn 0.00000000 0.00000000 -1.00000000
vn 0.00000000 0.00000000 -1.00000000
vn 0.00000000 0.00000000 -1.00000000
vn 0.00000000 0.00000000 -1.00000000
vn 0.00000000 0.00000000 -1.00000000
vn 0.00000000 0.00000000 -1.00000000
vn 0.00000000 0.00000000 -1.00000000
vn 0.00000000 0.00000000 -1.00000000
vn 0.00000000 0.00000000 -1.00000000
vn 0.00000000 0.00000000 -1.00000000
vn 0.00000000 0.00000000 -1.00000000
vn 0.00000000 0.00000000 -1.00000000
vn 0.00000000 0.00000000 -1.00000000
vn 0.00000000 0.00000000 -1.00000000
vn 0.00000000 0.00000000 -1.00000000
vn 0.00000000 0.00000000 -1.00000000
vn 0.70710000 -0.70710000 0.00000000
vn 0.70710000 -0.70710000 0.00000000
vn 0.70710000 -0.70710000 0.00000000
vn 0.70710000 -0.70710000 0.00000000
vn 0.70710000 0.70710000 0.00000000
vn 0.70710000 0.70710000 0.00000000
vn 0.70710000 0.70710000 0.00000000
vn 0.70710000 0.70710000 0.00000000
vn -0.70710000 0.70710000 0.00000000
vn -0.70710000 0.70710000 0.00000000
vn -0.70710000 0.70710000 0.00000000
vn -0.70710000 0.70710000 0.00000000
vn 0.70710000 0.70710000 0.00000000
vn 0.70710000 0.70710000 0.00000000
vn 0.70710000 0.70710000 0.00000000
vn 0.70710000 0.70710000 0.00000000
vn 0.70710000 -0.70710000 0.00000000
vn 0.70710000 -0.70710000 0.00000000
vn 0.70710000 -0.70710000 0.00000000
vn 0.70710000 -0.70710000 0.00000000
vn 0.70740000 0.70690000 0.00000000
vn 0.70740000 0.70690000 0.00000000
vn 0.70730000 0.70690000 0.00000000
vn 0.70730000 0.70690000 0.00000000
vn 0.70740000 0.70690000 0.00000000
vn 0.70730000 0.70690000 0.00000000
vn -0.70710000 0.70710000 0.00000000
vn -0.70710000 0.70710000 0.00000000
vn -0.70710000 0.70710000 0.00000000
vn -0.70710000 0.70710000 0.00000000
f 1//1 2//2 3//3
f 3//3 2//2 4//4
f 5//5 6//6 7//7
f 7//7 6//6 8//8
f 9//9 10//10 11//11
f 11//11 10//10 12//12
f 13//13 15//15 16//16
f 17//17 14//14 18//18
f 19//19 20//20 21//21
f 21//21 20//20 22//22
f 23//23 24//24 25//25
f 25//25 24//24 26//26
f 27//27 28//28 29//29
f 29//29 28//28 30//30
f 31//31 32//32 33//33
f 33//33 32//32 34//34
f 35//35 36//36 37//37
f 37//37 36//36 38//38
f 39//39 40//40 41//41
f 41//41 40//40 42//42
f 43//43 44//44 45//45
f 45//45 44//44 46//46
f 45//45 46//46 47//47
f 47//47 46//46 48//48
f 47//47 48//48 49//49
f 49//49 48//48 50//50
f 46//46 41//41 48//48
f 48//48 41//41 42//42
f 48//48 42//42 51//51
f 51//51 42//42 52//52
f 51//51 52//52 53//53
f 53//53 52//52 54//54
f 55//55 56//56 57//57
f 57//57 56//56 58//58
f 59//59 60//60 61//61
f 61//61 60//60 62//62
f 61//61 62//62 63//63
f 63//63 62//62 64//64
f 63//63 64//64 65//65
f 65//65 64//64 66//66
f 62//62 57//57 64//64
f 64//64 57//57 58//58
f 64//64 58//58 67//67
f 67//67 58//58 68//68
f 67//67 68//68 69//69
f 69//69 68//68 70//70
f 71//71 72//72 73//73
f 73//73 72//72 74//74
f 75//75 76//76 77//77
f 77//77 76//76 78//78
f 79//79 80//80 81//81
f 81//81 80//80 82//82
f 83//83 84//84 85//85
f 85//85 84//84 86//86
f 87//87 88//88 89//89
f 89//89 88//88 90//90
f 91//91 92//92 95//95
f 94//94 93//93 96//96
f 97//97 98//98 99//99
f 99//99 98//98 100//100