mtllib material.mtl
usemtl material_0
v 0.26464500 -0.01414200 -0.03600000
v 0.26464500 -0.01414200 -0.04600000
v 0.27171600 -0.02121300 -0.03600000
v 0.27171600 -0.02121300 -0.04600000
v 0.27171600 -0.00707100 -0.03600000
v 0.26464500 -0.01414200 -0.03600000
v 0.27878700 -0.01414200 -0.03600000
v 0.27171600 -0.02121300 -0.03600000
v 0.27171600 -0.00707100 -0.04600000
v 0.27171600 -0.00707100 -0.03600000
v 0.27878700 -0.01414200 -0.04600000
v 0.27878700 -0.01414200 -0.03600000
v 0.26464500 -0.01414200 -0.04600000
v 0.27171600 -0.00707100 -0.04600000
v 0.27171600 -0.02121300 -0.04600000
v 0.27878700 -0.01414200 -0.04600000
v 0.27171600 -0.00707100 -0.03600000
v 0.27171600 -0.00707100 -0.04600000
v 0.26464500 -0.01414200 -0.03600000
v 0.26464500 -0.01414200 -0.04600000
v 0.27878700 -0.01414200 -0.04600000
v 0.27878700 -0.01414200 -0.03600000
v 0.27171600 -0.02121300 -0.04600000
v 0.27171600 -0.02121300 -0.03600000
vn -0.70710000 -0.70710000 0.00000000
vn -0.70710000 -0.70710000 0.00000000
vn -0.70710000 -0.70710000 0.00000000
vn -0.70710000 -0.70710000 0.00000000
vn 0.00000000 0.00000000 1.00000000
vn 0.00000000 0.00000000 1.00000000
vn 0.00000000 0.00000000 1.00000000
vn 0.00000000 0.00000000 1.00000000
vn 0.70710000 0.70710000 0.00000000
vn 0.70710000 0.70710000 0.00000000
vn 0.70710000 0.70710000 0.00000000
vn 0.70710000 0.70710000 0.00000000
vn 0.00000000 0.00000000 -1.00000000
vn 0.00000000 0.00000000 -1.00000000
vn 0.00000000 0.00000000 -1.00000000
vn 0.00000000 0.00000000 -1.00000000
vn -0.70710000 0.70710000 0.00000000
vn -0.70710000 0.70710000 0.00000000
vn -0.70710000 0.70710000 0.00000000
vn -0.70710000 0.70710000 0.00000000
vn 0.70710000 -0.70710000 0.00000000
vn 0.70710000 -0.70710000 0.00000000
vn 0.70710000 -0.70710000 0.00000000
vn 0.70710000 -0.70710000 0.00000000
f 1//1 2//2 3//3
f 3//3 2//2 4//4
f 5//5 6//6 7//7
f 7//7 6//6 8//8
f 9//9 10//10 11//11
f 11//11 10//10 12//12
f 13//13 14//14 15//15
f 15//15 14//14 16//16
f 17//17 18//18 19//19
f 19//19 18//18 20//20
f 21//21 22//22 23//23
f 23//23 22//22 24//24